<?xml version="1.0" standalone="no"?>
<!DOCTYPE svg PUBLIC "-//W3C//DTD SVG 1.1//EN" "http://www.w3.org/Graphics/SVG/1.1/DTD/svg11.dtd" >
<svg xmlns="http://www.w3.org/2000/svg">
<metadata>Generated by IcoMoon</metadata>
<defs>
<font id="icomoon" horiz-adv-x="1024">
<font-face units-per-em="1024" ascent="960" descent="-64" />
<missing-glyph horiz-adv-x="1024" />
<glyph unicode="&#x20;" horiz-adv-x="512" d="" />
<glyph unicode="&#xe900;" glyph-name="change-password" horiz-adv-x="829" d="M63.195 513.975v-459.532c0.11-13.247 10.874-23.942 24.136-23.942 0.035 0 0.069 0 0.104 0h652.283c0.102-0.002 0.221-0.002 0.341-0.002 13.196 0 23.893 10.697 23.893 23.893 0 0.001 0 0.002 0 0.003v0 459.63c-0.138 13.225-10.891 23.894-24.136 23.894-0.035 0-0.069 0-0.104 0h-652.283c-0.087 0.001-0.19 0.002-0.293 0.002-13.206 0-23.915-10.692-23.942-23.893v-0.003zM14.921 513.975c0 0.029 0 0.064 0 0.098 0 39.884 32.332 72.216 72.216 72.216 0.103 0 0.206 0 0.309-0.001h652.37c39.985 0 72.411-32.329 72.509-72.314v-459.532c0-0.029 0-0.064 0-0.098 0-39.857-32.311-72.168-72.168-72.168-0.12 0-0.24 0-0.36 0.001h-652.416c-39.936-0.049-72.363 32.28-72.509 72.265v459.532zM208.213 743.351c0.139 86.677 70.381 156.902 157.051 157.013h84.613c86.715-0.028 157.007-70.303 157.062-157.008v-86.411s6.68-16.579 25.698-16.579 22.626 16.579 22.626 16.579v86.406c-0.056 113.409-91.976 205.33-205.38 205.385h-84.656c-113.356-0.139-205.205-92.022-205.288-205.377v-181.256l48.323 9.265v171.983zM402.383 404.261v-227.669c-0.031-0.459-0.049-0.995-0.049-1.535 0-13.358 10.828-24.186 24.186-24.186s24.186 10.828 24.186 24.186c0 0.54-0.018 1.076-0.053 1.607l0.004-0.072v227.669c-0.831 12.68-11.32 22.651-24.137 22.651s-23.306-9.97-24.133-22.579l-0.004-0.072z" />
<glyph unicode="&#xe901;" glyph-name="edit-profile" horiz-adv-x="890" d="M798.675 285.006l53.649-53.693-223.633-223.677-53.693 53.693 223.677 223.677zM65.002 79.226c-10.685 0-17.898 7.123-17.898 17.898v107.342c0 137.795 101.999 252.305 239.794 266.641l51.912 5.343-44.744 26.847c-64.423 41.138-103.78 109.167-103.78 184.32 0.353 118.449 96.28 214.375 214.694 214.728h0.034c118.449-0.353 214.375-96.28 214.728-214.694v-0.034c0-75.153-39.402-143.182-103.78-182.539l-44.744-26.847 51.868-5.343c107.386-12.555 195.050-85.927 225.503-184.32l28.627 28.627c-35.795 89.489-110.948 159.254-207.56 184.32 52.733 45.807 85.882 112.969 85.882 187.872 0 0.003 0 0.007 0 0.010v-0.001c0 137.795-112.729 250.524-250.524 250.524s-250.524-112.729-250.524-250.524c0.009-74.914 33.175-142.079 85.621-187.622l0.306-0.26c-132.497-35.795-229.109-155.693-229.109-297.049v-107.342c0-30.453 23.24-53.693 53.649-53.693h442.012l35.751 35.795h-477.674zM834.471 320.801l-17.898-17.898 53.649-53.693 17.898 17.898-53.649 53.693zM539.203-28.16l71.591 17.898-53.693 53.693-17.898-71.591z" />
<glyph unicode="&#xe902;" glyph-name="location-icon" horiz-adv-x="805" d="M402.725 938.935c-198.923-0.291-360.094-161.513-360.302-360.428v-0.020c0-51.785 10.606-101.303 31.451-147.090 90.185-197.193 262.949-405.431 313.783-464.457 3.696-4.269 9.123-6.953 15.177-6.953s11.481 2.684 15.156 6.928l0.021 0.025c50.834 59.026 223.598 267.264 313.783 464.457 19.866 42.68 31.456 92.652 31.456 145.33 0 0.619-0.002 1.237-0.005 1.855v-0.095c-0.249 198.969-161.478 360.198-360.424 360.448h-0.024zM402.725 391.314c-103.363 0.125-187.121 83.883-187.246 187.233v0.012c0.125 103.363 83.883 187.121 187.233 187.246h0.012c103.363-0.125 187.121-83.883 187.246-187.233v-0.012c-0.125-103.363-83.883-187.121-187.233-187.246h-0.012z" />
<glyph unicode="&#xe903;" horiz-adv-x="1093" d="M1082.16 448.733c0-277.695-226.715-502.812-506.382-502.812s-506.382 225.116-506.382 502.812c0 277.695 226.715 502.812 506.382 502.812s506.382-225.116 506.382-502.812z" />
<glyph unicode="&#xe904;" horiz-adv-x="1093" d="M657.74 401.463l-68.4-67.902-66.809 67.902 67.598 67.875 25.987-26.098z" />
<glyph unicode="&#xe905;" horiz-adv-x="1093" d="M881.194 215.843l-105.749-105.029-209.021 210.003 104.545 104.946 49.539-49.456zM651.112 644.331c0-165.68-135.265-300.004-302.122-300.004-63.101 0-121.69 19.221-170.164 52.072-79.678 54.023-131.971 144.924-131.971 247.933 0 165.708 135.265 300.004 302.135 300.004 90.901 0 172.419-39.853 227.798-102.926 46.147-52.171 74.323-121.17 74.323-196.75 0-0.115 0-0.231 0-0.346v0.018z" />
<glyph unicode="&#xe906;" horiz-adv-x="1093" d="M560.654 644.331c0-116.072-94.762-210.183-211.664-210.183-0.109 0-0.238 0-0.368 0-74.071 0-139.264 38.013-177.135 95.595l-0.494 0.8c-21.114 32.021-33.681 71.3-33.681 113.513 0 0.097 0 0.194 0 0.29v-0.015c0 116.099 94.762 210.197 211.677 210.197 51.408 0 98.553-18.211 135.237-48.502 46.703-38.552 76.426-96.657 76.426-161.695z" />
<glyph unicode="&#xe907;" horiz-adv-x="1093" d="M491.658 571.932c-0.071-19.756-16.102-35.743-35.867-35.743-0.039 0-0.078 0-0.117 0h0.006c-0.021 0-0.045 0-0.069 0-14.913 0-27.706 9.081-33.15 22.015l-0.088 0.237c-1.698 3.98-2.685 8.611-2.685 13.472 0 0.007 0 0.014 0 0.021v-0.001c0.052 19.77 16.090 35.776 35.868 35.776 2.946 0 5.809-0.355 8.549-1.025l-0.246 0.051c16.017-3.758 27.768-17.901 27.814-34.797v-0.005zM741.722 816.183c-0.079-19.75-16.107-35.729-35.867-35.729-0.039 0-0.078 0-0.117 0h0.006c-0.025 0-0.054 0-0.083 0-14.913 0-27.706 9.081-33.15 22.015l-0.088 0.236c-1.689 3.971-2.671 8.591-2.671 13.439 0 0.019 0 0.037 0 0.056v-0.003c0.054 19.768 16.092 35.773 35.868 35.773 2.941 0 5.799-0.354 8.535-1.022l-0.246 0.051c16.022-3.759 27.775-17.909 27.814-34.812v-0.004zM82.847 405.795c-0.079-19.75-16.107-35.729-35.867-35.729-0.039 0-0.078 0-0.117 0h0.006c-0.026 0-0.058 0-0.089 0-14.908 0-27.697 9.074-33.144 22.001l-0.088 0.236c-1.689 3.971-2.671 8.591-2.671 13.439 0 0.019 0 0.037 0 0.056v-0.003c0.048 19.773 16.088 35.784 35.868 35.784 2.936 0 5.789-0.353 8.521-1.018l-0.245 0.051c16.022-3.759 27.775-17.909 27.814-34.812v-0.004zM306.37 629.040c-0.079-19.75-16.107-35.729-35.867-35.729-0.039 0-0.078 0-0.117 0h0.006c-0.022 0-0.049 0-0.075 0-14.908 0-27.697 9.074-33.144 22.001l-0.088 0.236c-1.698 3.98-2.685 8.611-2.685 13.472 0 0.007 0 0.014 0 0.021v-0.001c0.052 19.77 16.090 35.776 35.868 35.776 2.946 0 5.809-0.355 8.549-1.025l-0.246 0.051c16.017-3.758 27.768-17.901 27.814-34.797v-0.005z" />
<glyph unicode="&#xe908;" horiz-adv-x="1093" d="M509.509 803.798c-40.948 40.814-97.446 66.049-159.839 66.049-0.259 0-0.517 0-0.776-0.001h0.040c-0.222 0.001-0.486 0.001-0.75 0.001-62.392 0-118.89-25.235-159.845-66.055l0.006 0.006c-88.562-87.926-88.562-230.995 0-318.921 40.95-40.814 97.45-66.049 159.844-66.049 0.262 0 0.523 0 0.784 0.001h-0.040c60.665 0 117.691 23.455 160.588 66.048s66.505 99.217 66.505 159.467c0 60.222-23.621 116.861-66.505 159.453zM348.949 444.513c-0.193-0.001-0.42-0.001-0.648-0.001-55.291 0-105.359 22.364-141.652 58.541l0.005-0.005c-7.278 7.219-13.994 14.976-20.095 23.216l-0.385 0.544 58.783 60.499c6.21-3.317 13.583-5.266 21.411-5.266 15.881 0 29.889 8.020 38.196 20.23l0.103 0.161 103.618-32.298-0.028-0.886c0-25.24 20.674-45.762 46.080-45.762 25.42 0 46.108 20.522 46.108 45.762 0 0.003 0 0.007 0 0.010 0 7.88-2.014 15.29-5.556 21.743l0.118-0.235 55.171 53.566c0-53.373-20.923-103.549-58.949-141.284-36.285-36.171-86.351-58.535-141.64-58.535-0.225 0-0.45 0-0.675 0.001h0.035zM491.243 785.629c28.738-28.355 48.832-65.405 56.013-106.881l0.169-1.179-70.504-68.456c-6.502 3.714-14.289 5.903-22.587 5.903-15.882 0-29.89-8.020-38.196-20.231l-0.103-0.161-103.618 32.298 0.028 0.886c0 25.24-20.674 45.776-46.080 45.776-25.42 0-46.094-20.535-46.094-45.776 0-8.247 2.214-15.983 6.089-22.68l-54.383-55.946c-41.237 75.721-29.71 172.53 34.664 236.447 36.287 36.171 86.355 58.535 141.646 58.535 0.233 0 0.466 0 0.698-0.001h-0.036c0.193 0.001 0.42 0.001 0.648 0.001 55.291 0 105.359-22.364 141.652-58.541l-0.005 0.005zM474.555 569.261c0-11.070-9.064-20.093-20.217-20.093-0.021 0-0.045 0-0.069 0-11.114 0-20.128 8.986-20.175 20.088v0.005c0 11.070 9.078 20.065 20.231 20.065s20.217-8.995 20.217-20.065zM286.582 627.823c0-11.070-9.078-20.093-20.231-20.093-0.012 0-0.027 0-0.042 0-11.113 0-20.128 8.986-20.175 20.088v0.005c0 11.070 9.064 20.065 20.217 20.065s20.231-8.995 20.231-20.065z" />
<glyph unicode="&#xe909;" horiz-adv-x="1093" d="M672.906 438.023l-18.778-18.653-46.592 49.456c55.144 80.024 68.414 180.155 39.811 269.866l36.961 35.895c6.504-3.487 13.935-5.48 21.836-5.48 25.406 0 46.080 20.535 46.080 45.776 0 7.472-1.813 14.53-5.037 20.757l79.36 77.049v-39.825h25.863v83.179h-83.774v-25.669h39.12l-78.308-76.053c-6.661 3.966-14.689 6.31-23.264 6.31-0.014 0-0.028 0-0.041 0h0.002c-25.42 0-46.080-20.535-46.080-45.762 0-8.081 2.117-15.664 5.826-22.265l-28.326-27.496c-16.57 38.573-39.226 71.487-67.118 99.125l-0.023 0.023c-122.133 121.275-320.844 121.261-442.977 0-108.793-108.018-120.666-276.383-35.646-397.589l-21.781-22.417c-6.198 3.313-13.557 5.258-21.37 5.258-0.008 0-0.017 0-0.025 0h0.001c-25.406 0-46.080-20.535-46.080-45.776 0-25.226 20.674-45.762 46.080-45.762 25.42 0 46.094 20.535 46.094 45.762 0 8.247-2.214 15.997-6.089 22.694l19.027 19.567c6.199-7.417 12.786-14.627 19.788-21.587 61.066-60.624 141.284-90.942 221.488-90.942 61.578 0 123.143 17.878 176.045 53.608l46.703-49.553-19.414-19.29 226.166-223.799 120.638 119.794-226.166 223.799zM685.914 814.883c0 11.070 9.078 20.065 20.231 20.065s20.217-8.995 20.217-20.065c0-11.070-9.064-20.093-20.217-20.093-0.016 0-0.036 0-0.056 0-11.113 0-20.128 8.986-20.175 20.088v0.005zM68.857 403.733c0-11.070-9.078-20.079-20.231-20.079-0.012 0-0.027 0-0.042 0-11.109 0-20.12 8.978-20.175 20.073v0.005c0 11.070 9.064 20.079 20.217 20.079s20.231-8.995 20.231-20.065zM145.726 442.576c-112.045 111.256-112.045 292.269 0 403.539 56.029 55.628 129.619 83.442 203.209 83.442s147.179-27.814 203.195-83.442c112.045-111.256 112.045-292.283 0-403.539s-294.358-111.256-406.403 0zM545.889 402.487c17.006 13.74 32.056 28.632 45.502 44.899l0.426 0.53 44.004-46.717-45.831-45.526-44.101 46.813zM778.406 130.712l-189.523 187.572 84.051 83.456 189.537-187.53-84.065-83.47z" />
<glyph unicode="&#xe90a;" horiz-adv-x="1093" d="M142.668 320.304h25.877v-27.98h-25.877zM142.668 163.466h25.877v-27.98h-25.877zM355.702 266.337h25.863v-27.98h-25.877zM726.376 497.318h25.863v-27.98h-25.877zM755.712 720.176h25.863v-27.98h-25.877zM841.424 602.167h25.863v-27.98h-25.877z" />
<glyph unicode="&#xe90b;" horiz-adv-x="930" d="M928.026 400.319c0-254.603-206.397-461-461-461s-461 206.397-461 461c0 254.603 206.397 461 461 461s461-206.397 461-461z" />
<glyph unicode="&#xe90c;" horiz-adv-x="930" d="M302.692 218.624h186.344v-139.276h-186.344z" />
<glyph unicode="&#xe90d;" horiz-adv-x="930" d="M396.971 179.583c14.065 0 27.93 0.8 41.572 2.307-15.882 2.022-29.965 4.933-43.641 8.811l2.069-0.501v-10.617zM768.494 511.841c1.465 12.47 2.303 26.921 2.307 41.566v0.006h-10.617c3.731-13.5 6.532-27.377 8.31-41.572z" />
<glyph unicode="&#xe90e;" horiz-adv-x="930" d="M23.152 552.66c0-206.46 167.371-373.831 373.819-373.831v0.753c-206.212 0-373.407 166.959-373.819 373.077z" />
<glyph unicode="&#xe90f;" horiz-adv-x="930" d="M767.482 553.401c0-204.612-165.888-370.476-370.511-370.476-49.411 0-96.527 9.687-139.641 27.248-135.403 55.108-230.859 188.028-230.859 343.228 0 204.623 165.888 370.5 370.5 370.5 155.248 0 288.156-95.467 343.299-230.859 17.214-41.192 27.213-89.054 27.213-139.251 0-0.137 0-0.274 0-0.411v0.021z" />
<glyph unicode="&#xe910;" horiz-adv-x="930" d="M590.212 553.496c0-107.446-87.102-194.548-194.548-194.548s-194.548 87.102-194.548 194.548c0 107.446 87.102 194.548 194.548 194.548s194.548-87.102 194.548-194.548z" />
<glyph unicode="&#xe911;" horiz-adv-x="930" d="M769.871 847.089l-65.454-65.418h-83.45v78.318l67.231 67.254 0.377-80.154z" />
<glyph unicode="&#xe912;" horiz-adv-x="930" d="M798.426 854.622l-18.079 18.079-17.902-17.891h-45.080l14.854 14.866-18.079 18.079-14.866-14.866v45.080l15.901 15.913-18.091 18.079-83.332-83.344c-64.147 44.161-139.052 67.443-217.5 67.443-102.635 0-199.15-39.971-271.725-112.546-72.575-72.586-112.534-169.101-112.534-271.737s39.971-199.15 112.546-271.725c46.822-46.81 103.589-80.037 165.535-97.739v-116.524h212.427v116.524c61.923 17.726 118.678 50.941 165.488 97.739 72.563 72.575 112.534 169.089 112.534 271.725 0 78.495-23.27 153.365-67.443 217.5l85.345 85.333zM617.048 567.631c-3.726 50.827-24.152 96.278-55.749 131.502l0.182-0.206 65.465 65.465h58.227c40.699-54.468 66.283-122.345 69.419-196.034l0.025-0.727h-137.581zM591.801 542.055c-4.896-99.622-84.604-179.894-183.979-185.709v58.38h-25.576v-58.227c-98.245 6.956-176.693 86.746-181.554 185.556h54.225v25.576h-53.825c7.733 95.962 84.945 172.609 181.154 179.447v-52.118h25.576v52.259c45.349-2.729 86.074-20.563 117.675-48.486l-0.209 0.181-107.379-107.379c-6.238 3.482-13.686 5.532-21.613 5.532-0.016 0-0.031 0-0.047 0h0.002c-25.001-0.027-45.26-20.29-45.28-45.289v-0.002c0.027-24.996 20.283-45.253 45.277-45.28h0.003c24.991 0.033 45.241 20.287 45.268 45.277v0.003c0 7.839-2.001 15.219-5.532 21.657l107.379 107.379c26.821-30.345 44.392-69.429 47.975-112.486l0.047-0.707h-56.249v-25.565h56.661zM608.856 782.471l-65.465-65.454c-36.055 32.351-83.156 53.043-135.016 55.814l-0.552 0.024v137.44c75.939-2.294 145.44-28.059 201.971-70.242l-0.938 0.669v-58.25zM415.956 551.777c0-10.852-8.839-19.691-19.703-19.691-10.872 0.013-19.683 8.82-19.703 19.689v0.002c0 10.864 8.839 19.703 19.703 19.703 0.518 0 1.036-0.035 1.542-0.082l-10.593-10.581 18.091-18.079 10.593 10.581c0.035-0.518 0.071-1.024 0.071-1.542zM634.433 853.151l39.265 39.265v-45.080l-18.22-18.22 18.091-18.079 18.208 18.208h45.091l-39.265-39.265h-63.182v63.158zM382.246 910.177v-137.475c-110.31-6.921-198.962-94.997-206.789-205.071h-137.534c8.121 185.827 158.261 335.378 344.323 342.557zM37.688 542.055h137.428c4.908-112.899 94.785-204.129 207.13-211.179v-137.487c-188.086 7.25-339.509 160.026-344.558 348.666zM476.913 143.484h-80.625v-25.576h80.637v-26.542h-161.286v84.592c26.212-5.567 53.189-8.439 80.614-8.439 27.448 0 54.437 2.884 80.661 8.451v-32.486zM407.823 193.295v137.428c113.476 5.873 204.623 97.61 209.567 211.344h137.428c-5.061-189.464-157.767-342.746-346.995-348.772z" />
<glyph unicode="&#xe913;" glyph-name="sign-out" horiz-adv-x="1195" d="M1183.63 459.662c5.35-5.361 8.658-12.762 8.658-20.935s-3.308-15.574-8.659-20.936l-237.055-237.055c-5.36-5.353-12.761-8.663-20.935-8.663-16.362 0-29.627 13.264-29.627 29.627 0 8.188 3.322 15.601 8.691 20.963v0l186.425 186.425h-461.824c-15.801 0.714-28.341 13.698-28.341 29.611s12.54 28.896 28.277 29.608l0.064 0.002h461.824l-186.425 186.482c-5.016 5.298-8.101 12.469-8.101 20.361 0 16.369 13.27 29.639 29.639 29.639 7.878 0 15.037-3.073 20.346-8.086l-0.014 0.013 237.056-237.056zM510.805-64.967c-277.732 0-503.694 225.963-503.694 503.694s225.963 503.694 503.694 503.694c86.869 0 172.942-22.869 248.775-66.048 7.919-5.415 13.049-14.404 13.049-24.591 0-16.401-13.295-29.696-29.696-29.696-4.573 0-8.904 1.034-12.773 2.88l0.179-0.077c-63.076 36.588-138.769 58.217-219.507 58.311h-0.027c-245.077 0-444.416-199.396-444.416-444.473s199.339-444.416 444.416-444.416c80.752 0.085 156.444 21.671 221.682 59.341l-2.148-1.144c4.202 2.429 9.244 3.862 14.62 3.862 16.35 0 29.604-13.254 29.604-29.604 0-10.974-5.971-20.553-14.841-25.666l-0.143-0.076c-71.494-41.392-157.263-65.866-248.738-65.991h-0.037z" />
<glyph unicode="&#xe914;" horiz-adv-x="930" d="M928.026 400.319c0-254.603-206.397-461-461-461s-461 206.397-461 461c0 254.603 206.397 461 461 461s461-206.397 461-461z" />
<glyph unicode="&#xe915;" horiz-adv-x="930" d="M302.692 218.624h186.344v-139.276h-186.344z" />
<glyph unicode="&#xe916;" horiz-adv-x="930" d="M396.971 179.583c14.065 0 27.93 0.8 41.572 2.307-15.882 2.022-29.965 4.933-43.641 8.811l2.069-0.501v-10.617zM768.494 511.841c1.465 12.47 2.303 26.921 2.307 41.566v0.006h-10.617c3.731-13.5 6.532-27.377 8.31-41.572z" />
<glyph unicode="&#xe917;" horiz-adv-x="930" d="M23.152 552.66c0-206.46 167.371-373.831 373.819-373.831v0.753c-206.212 0-373.407 166.959-373.819 373.077z" />
<glyph unicode="&#xe918;" horiz-adv-x="930" d="M767.482 553.401c0-204.612-165.888-370.476-370.511-370.476-49.411 0-96.527 9.687-139.641 27.248-135.403 55.108-230.859 188.028-230.859 343.228 0 204.623 165.888 370.5 370.5 370.5 155.248 0 288.156-95.467 343.299-230.859 17.214-41.192 27.213-89.054 27.213-139.251 0-0.137 0-0.274 0-0.411v0.021z" />
<glyph unicode="&#xe919;" horiz-adv-x="930" d="M590.212 553.496c0-107.446-87.102-194.548-194.548-194.548s-194.548 87.102-194.548 194.548c0 107.446 87.102 194.548 194.548 194.548s194.548-87.102 194.548-194.548z" />
<glyph unicode="&#xe91a;" horiz-adv-x="930" d="M769.871 847.089l-65.454-65.418h-83.45v78.318l67.231 67.254 0.377-80.154z" />
<glyph unicode="&#xe91b;" horiz-adv-x="930" d="M798.426 854.622l-18.079 18.079-17.902-17.891h-45.080l14.854 14.866-18.079 18.079-14.866-14.866v45.080l15.901 15.913-18.091 18.079-83.332-83.344c-64.147 44.161-139.052 67.443-217.5 67.443-102.635 0-199.15-39.971-271.725-112.546-72.575-72.586-112.534-169.101-112.534-271.737s39.971-199.15 112.546-271.725c46.822-46.81 103.589-80.037 165.535-97.739v-116.524h212.427v116.524c61.923 17.726 118.678 50.941 165.488 97.739 72.563 72.575 112.534 169.089 112.534 271.725 0 78.495-23.27 153.365-67.443 217.5l85.345 85.333zM617.048 567.631c-3.726 50.827-24.152 96.278-55.749 131.502l0.182-0.206 65.465 65.465h58.227c40.699-54.468 66.283-122.345 69.419-196.034l0.025-0.727h-137.581zM591.801 542.055c-4.896-99.622-84.604-179.894-183.979-185.709v58.38h-25.576v-58.227c-98.245 6.956-176.693 86.746-181.554 185.556h54.225v25.576h-53.825c7.733 95.962 84.945 172.609 181.154 179.447v-52.118h25.576v52.259c45.349-2.729 86.074-20.563 117.675-48.486l-0.209 0.181-107.379-107.379c-6.238 3.482-13.686 5.532-21.613 5.532-0.016 0-0.031 0-0.047 0h0.002c-25.001-0.027-45.26-20.29-45.28-45.289v-0.002c0.027-24.996 20.283-45.253 45.277-45.28h0.003c24.991 0.033 45.241 20.287 45.268 45.277v0.003c0 7.839-2.001 15.219-5.532 21.657l107.379 107.379c26.821-30.345 44.392-69.429 47.975-112.486l0.047-0.707h-56.249v-25.565h56.661zM608.856 782.471l-65.465-65.454c-36.055 32.351-83.156 53.043-135.016 55.814l-0.552 0.024v137.44c75.939-2.294 145.44-28.059 201.971-70.242l-0.938 0.669v-58.25zM415.956 551.777c0-10.852-8.839-19.691-19.703-19.691-10.872 0.013-19.683 8.82-19.703 19.689v0.002c0 10.864 8.839 19.703 19.703 19.703 0.518 0 1.036-0.035 1.542-0.082l-10.593-10.581 18.091-18.079 10.593 10.581c0.035-0.518 0.071-1.024 0.071-1.542zM634.433 853.151l39.265 39.265v-45.080l-18.22-18.22 18.091-18.079 18.208 18.208h45.091l-39.265-39.265h-63.182v63.158zM382.246 910.177v-137.475c-110.31-6.921-198.962-94.997-206.789-205.071h-137.534c8.121 185.827 158.261 335.378 344.323 342.557zM37.688 542.055h137.428c4.908-112.899 94.785-204.129 207.13-211.179v-137.487c-188.086 7.25-339.509 160.026-344.558 348.666zM476.913 143.484h-80.625v-25.576h80.637v-26.542h-161.286v84.592c26.212-5.567 53.189-8.439 80.614-8.439 27.448 0 54.437 2.884 80.661 8.451v-32.486zM407.823 193.295v137.428c113.476 5.873 204.623 97.61 209.567 211.344h137.428c-5.061-189.464-157.767-342.746-346.995-348.772z" />
<glyph unicode="&#xe91c;" glyph-name="upload-photo" horiz-adv-x="931" d="M405.206 476.858c84.433 0 164.976-32.172 225.317-80.393h60.174c-48.37 48.37-112.733 88.623-181.155 104.653 80.393 40.271 132.803 120.664 132.803 217.386 0.149 132.803-108.395 241.496-241.347 241.496s-241.664-108.544-241.664-241.478c0-96.573 56.301-177.133 132.803-217.405-164.976-44.311-289.699-201.225-289.699-386.383v-120.664h483.011v40.234h-442.405v80.431c0 201.058 160.936 362.161 362.161 362.161zM203.981 718.336c0 112.752 88.623 201.225 201.225 201.225 112.584 0 201.207-88.623 201.207-201.207s-88.623-201.207-201.207-201.207c-112.584 0-201.225 88.474-201.225 201.207zM928.451 114.716h-120.646v120.646h-40.439v-120.646h-120.683v-40.29h120.683v-120.832h40.42v120.832h120.664z" />
</font>
</defs>
</svg>
